Coordinates
version=1
nRows=5
nColumns=45
inDegrees=yes

Units are S.I. units (second, meters, Newtons, ...)
If the header above contains a line with 'inDegrees', this indicates whether rotational values are in degrees (yes) or radians (no).

endheader
time	HipInputX	HipInputY	HipInputZ	TranslationInputX	TranslationInputY	TranslationInputZ	SpineInputX	SpineInputY	TorsoInput	LEInput	LFInput	LScapInputX	LScapInputY	LSInputX	LSInputY	LSInputZ	LWInputX	LWInputY	REInput	RFInput	RScapInputX	RScapInputY	RSInputX	RSInputY	RSInputZ	RWInputX	RWInputY	NeckInputX	NeckInputY	NeckInputZ	hip_flexion_r	hip_adduction_r	hip_rotation_r	knee_angle_r	ankle_angle_r	subtalar_angle_r	mtp_angle_r	hip_flexion_l	hip_adduction_l	hip_rotation_l	knee_angle_l	ankle_angle_l	subtalar_angle_l	mtp_angle_l
      0.45277778	    -89.42508486	    -11.56879448	   -182.16266997	      1.09822927	      0.80592604	     -0.05677303	      1.00341455	     16.72555023	     -0.27710438	    -68.73444937	     60.50626980	     17.08081593	     -8.75324657	   -115.02343311	      4.47327281	   -287.76149458	    102.82267928	    -20.95779117	   -131.48587231	   -163.73683150	     -9.75493436	    -23.68025001	     52.07286892	     37.31973619	   -106.83710395	    138.23908105	     27.04861402	      6.53010874	      1.45949795	     -2.96211716	     93.94418307	   -162.79030014	     71.15656273	     15.24758266	    -72.75012142	      0.00000000	      0.00000000	     95.90549304	     -0.76258855	     70.44589898	     29.93149825	   -777.88172554	      0.00000000	      0.00000000
      0.45555556	    -89.44059602	    -11.55341800	   -182.28918056	      1.09824568	      0.80580117	     -0.05700809	      0.91257759	     16.75656878	     -0.59032116	    -69.36398009	     60.89784621	     17.22750715	     -8.73341731	   -115.35362493	      4.85292099	   -288.40236971	    102.87373415	    -21.35821608	   -132.18342397	   -163.83230976	     -9.84224605	    -23.23780469	     51.97022214	     37.20968707	   -107.42658152	    138.01898475	     27.20043482	      6.41186385	      1.55452036	     -1.96611455	     93.89950641	   -162.53262201	     71.12336223	     15.26174389	    -72.90832974	      0.00000000	      0.00000000	     95.92812332	     -0.49077228	     70.44976247	     29.92089417	   -778.06644602	      0.00000000	      0.00000000
      0.45833333	    -89.44840822	    -11.56318649	   -182.41220601	      1.09834653	      0.80577656	     -0.05714821	      0.81949793	     16.74894575	     -0.84495821	    -69.31943884	     60.86787121	     17.14912520	     -8.83399158	   -115.39302628	      4.98704252	   -288.59813383	    102.82940545	    -21.40323429	   -132.23522902	   -163.88954104	     -9.89793034	    -23.40944186	     51.82098264	     37.10232990	   -107.50105168	    137.96006762	     27.25178809	      6.35281231	      1.60252900	     -1.92965382	     93.95231185	   -162.49403073	     71.15635103	     15.28876923	    -72.91271611	      0.00000000	      0.00000000	     95.90188218	     -0.46721015	     70.42281978	     29.91560652	   -778.07467666	      0.00000000	      0.00000000
      0.46111111	    -89.45058215	    -11.57429642	   -182.44425768	      1.09830357	      0.80565229	     -0.05727866	      0.79651556	     16.77853929	     -1.11158902	    -69.52907744	     61.03104082	     17.12997143	     -8.90218219	   -115.72328440	      5.29308767	   -288.99903712	    102.75407513	    -21.46740192	   -132.73667693	   -164.07296952	     -9.90784741	    -23.38820046	     51.54815306	     37.08155395	   -107.89731219	    137.71999239	     27.57869351	      6.14877035	      1.55368046	     -1.31412404	     93.93057641	   -162.35604503	     71.12953313	     15.29111270	    -73.02602765	      0.00000000	      0.00000000	     95.94213549	     -0.33214756	     70.42497492	     29.91405323	   -778.18707737	      0.00000000	      0.00000000
      0.46388889	    -89.45969097	    -11.58264249	   -182.57568457	      1.09839710	      0.80561696	     -0.05739353	      0.69779586	     16.76533243	     -1.36472886	    -69.48215289	     61.00011231	     17.05656331	     -9.00382407	   -115.75065323	      5.43243289	   -289.20792390	    102.71431718	    -21.53095649	   -132.78348378	   -164.12784361	     -9.96456255	    -23.55072418	     51.38211938	     36.96098876	   -107.97681835	    137.66428276	     27.62437583	      6.09520222	      1.61106111	     -1.28075543	     93.98686970	   -162.31817037	     71.16268431	     15.31908316	    -73.02980733	      0.00000000	      0.00000000	     95.90697911	     -0.30634655	     70.39665281	     29.90781645	   -778.19549410	      0.00000000	      0.00000000
